<svg width="435" height="406" viewBox="0 0 435 406" fill="none" xmlns="http://www.w3.org/2000/svg">
<g clip-path="url(#clip0)">
<path d="M205.08 3.38753L191.769 10.6481L27.7753 100.1L14.4644 107.36C8.00549 110.893 3.21199 116.842 1.13552 123.903C-0.940947 130.965 -0.130812 138.561 3.3882 145.026L125.51 368.78C129.044 375.237 134.995 380.029 142.059 382.105C149.122 384.181 156.721 383.371 163.187 379.853L163.222 379.834L353.768 275.899L353.803 275.881C360.262 272.348 365.055 266.399 367.132 259.337C369.208 252.276 368.398 244.68 364.879 238.215L242.757 14.4605C239.223 8.00351 233.272 3.21144 226.209 1.13558C219.145 -0.940279 211.547 -0.130405 205.08 3.38753Z" fill="#C672F7" fill-opacity="0.6"/>
<path d="M208.909 10.4024L193.143 19.002L34.0593 105.776L18.2936 114.375C13.6941 116.891 10.2805 121.127 8.80182 126.156C7.3231 131.184 7.90002 136.594 10.406 141.198L132.528 364.952C135.044 369.55 139.282 372.963 144.312 374.441C149.342 375.919 154.754 375.343 159.359 372.837L159.393 372.819L349.94 268.884L349.974 268.865C354.574 266.349 357.987 262.112 359.466 257.084C360.945 252.056 360.368 246.646 357.862 242.042L235.74 18.2878C233.223 13.6897 228.985 10.2771 223.955 8.79884C218.926 7.32056 213.514 7.89726 208.909 10.4024Z" fill="white"/>
<path d="M211.538 79.8559L140.471 118.62C139.394 119.207 138.129 119.343 136.952 118.997C135.775 118.651 134.784 117.852 134.197 116.776C133.609 115.7 133.474 114.434 133.82 113.258C134.165 112.081 134.965 111.091 136.041 110.503L207.108 71.7396C208.184 71.1524 209.45 71.0167 210.627 71.3626C211.804 71.7084 212.795 72.5073 213.382 73.5836C213.97 74.6598 214.105 75.9253 213.759 77.1016C213.413 78.2779 212.614 79.2687 211.538 79.8559H211.538Z" fill="#C672F7" fill-opacity="0.6"/>
<path d="M235.757 84.4185L147.946 132.316C146.869 132.903 145.603 133.039 144.427 132.693C143.25 132.347 142.259 131.548 141.671 130.472C141.084 129.396 140.948 128.13 141.294 126.954C141.64 125.778 142.439 124.787 143.516 124.2L231.327 76.3022C231.86 76.0115 232.446 75.8285 233.049 75.7638C233.653 75.6991 234.264 75.7539 234.846 75.9252C235.429 76.0964 235.972 76.3806 236.445 76.7617C236.918 77.1428 237.311 77.6132 237.602 78.1462C237.892 78.6791 238.075 79.2641 238.14 79.8677C238.205 80.4713 238.15 81.0818 237.979 81.6642C237.807 82.2467 237.523 82.7897 237.142 83.2623C236.761 83.7349 236.29 84.1277 235.757 84.4185H235.757Z" fill="#C672F7" fill-opacity="0.6"/>
<path d="M111.255 102.484L45.7353 138.222C45.2196 138.503 44.8367 138.978 44.671 139.542C44.5053 140.105 44.5702 140.711 44.8516 141.227L72.7513 192.346C73.0329 192.861 73.5077 193.244 74.0715 193.41C74.6352 193.575 75.2417 193.51 75.7576 193.229L141.277 157.491C141.793 157.21 142.175 156.735 142.341 156.171C142.507 155.608 142.442 155.002 142.161 154.486L114.261 103.367C113.979 102.852 113.504 102.469 112.941 102.303C112.377 102.138 111.77 102.203 111.255 102.484Z" fill="#C672F7" fill-opacity="0.6"/>
<path d="M246.799 144.717L150.406 197.295C149.873 197.586 149.287 197.769 148.684 197.834C148.08 197.898 147.469 197.844 146.886 197.672C146.304 197.501 145.761 197.217 145.288 196.836C144.815 196.455 144.422 195.984 144.131 195.451C143.84 194.918 143.657 194.333 143.593 193.73C143.528 193.126 143.583 192.516 143.754 191.933C143.925 191.351 144.21 190.808 144.591 190.335C144.972 189.863 145.443 189.47 145.976 189.179L242.369 136.601C243.445 136.014 244.711 135.878 245.888 136.224C247.064 136.569 248.056 137.368 248.643 138.445C249.23 139.521 249.366 140.786 249.02 141.963C248.674 143.139 247.875 144.13 246.798 144.717H246.799Z" fill="#C672F7" fill-opacity="0.6"/>
<path d="M271.019 149.28L157.881 210.992C156.805 211.579 155.539 211.714 154.362 211.369C153.185 211.023 152.194 210.224 151.607 209.148C151.02 208.071 150.884 206.806 151.23 205.63C151.576 204.453 152.375 203.462 153.451 202.875L266.589 141.163C267.666 140.576 268.932 140.441 270.108 140.786C271.285 141.132 272.276 141.931 272.863 143.007C273.451 144.084 273.587 145.349 273.241 146.525C272.895 147.702 272.096 148.692 271.019 149.28H271.019Z" fill="#C672F7" fill-opacity="0.6"/>
<path d="M113.695 240.355C124.53 240.355 133.313 231.574 133.313 220.742C133.313 209.911 124.53 201.13 113.695 201.13C102.86 201.13 94.0762 209.911 94.0762 220.742C94.0762 231.574 102.86 240.355 113.695 240.355Z" fill="#C672F7" fill-opacity="0.6"/>
<path d="M407.231 95.5846H190.088C182.726 95.5929 175.668 98.5203 170.462 103.725C165.256 108.929 162.328 115.985 162.319 123.345V378.239C162.328 385.599 165.256 392.656 170.462 397.86C175.668 403.064 182.726 405.992 190.088 406H407.231C414.593 405.992 421.652 403.064 426.858 397.86C432.064 392.656 434.992 385.599 435 378.239V123.345C434.992 115.985 432.064 108.929 426.858 103.725C421.652 98.5203 414.593 95.5929 407.231 95.5846Z" fill="#C672F7"/>
<path d="M407.232 103.576H190.088C184.846 103.582 179.819 105.667 176.112 109.373C172.405 113.079 170.319 118.104 170.313 123.345V378.239C170.319 383.481 172.405 388.505 176.112 392.212C179.819 395.918 184.846 398.002 190.088 398.008H407.232C412.474 398.002 417.501 395.918 421.208 392.212C424.915 388.505 427 383.481 427.006 378.239V123.345C427 118.104 424.915 113.079 421.208 109.373C417.501 105.667 412.474 103.582 407.232 103.576Z" fill="white"/>
<path d="M376.263 165.804H295.306C294.079 165.804 292.903 165.317 292.036 164.45C291.169 163.583 290.682 162.407 290.682 161.181C290.682 159.955 291.169 158.779 292.036 157.912C292.903 157.045 294.079 156.558 295.306 156.558H376.263C376.87 156.557 377.472 156.676 378.034 156.908C378.596 157.14 379.106 157.481 379.536 157.91C379.966 158.339 380.307 158.849 380.54 159.41C380.772 159.972 380.892 160.573 380.892 161.181C380.892 161.788 380.772 162.39 380.54 162.951C380.307 163.512 379.966 164.022 379.536 164.451C379.106 164.881 378.596 165.221 378.034 165.453C377.472 165.685 376.87 165.804 376.263 165.804Z" fill="#A83AE8"/>
<path d="M395.338 181.406H295.306C294.079 181.406 292.903 180.919 292.036 180.052C291.169 179.185 290.682 178.009 290.682 176.783C290.682 175.557 291.169 174.381 292.036 173.514C292.903 172.647 294.079 172.16 295.306 172.16H395.338C396.564 172.16 397.741 172.647 398.608 173.514C399.475 174.381 399.962 175.557 399.962 176.783C399.962 178.009 399.475 179.185 398.608 180.052C397.741 180.919 396.564 181.406 395.338 181.406Z" fill="#A83AE8"/>
<path d="M277.39 137.65H202.753C202.165 137.65 201.602 137.883 201.186 138.299C200.771 138.714 200.537 139.277 200.537 139.865V198.097C200.537 198.685 200.771 199.248 201.186 199.663C201.602 200.079 202.165 200.312 202.753 200.312H277.39C277.978 200.312 278.541 200.079 278.957 199.663C279.372 199.248 279.606 198.685 279.606 198.097V139.865C279.606 139.277 279.372 138.714 278.957 138.299C278.541 137.883 277.978 137.65 277.39 137.65Z" fill="#C672F7"/>
<path d="M223.226 173.408C223.257 178.324 221.444 183.074 218.146 186.72C214.882 190.3 210.024 192.675 205.121 191.692C200.606 190.788 196.937 186.843 197.395 182.071C197.471 181.037 197.772 180.033 198.276 179.127C198.78 178.221 199.475 177.437 200.314 176.827C201.153 176.218 202.114 175.799 203.132 175.599C204.149 175.399 205.197 175.424 206.204 175.671C210.493 176.783 212.202 182.963 208.628 185.863C207.771 186.559 206.539 185.342 207.404 184.639C209.767 182.722 209.037 178.527 206.185 177.475C202.865 176.251 199.348 178.885 199.109 182.278C198.826 186.301 201.909 189.331 205.689 190.044C209.779 190.816 213.834 188.723 216.605 185.835C219.781 182.481 221.534 178.027 221.495 173.408C221.503 173.184 221.597 172.972 221.759 172.816C221.92 172.66 222.136 172.573 222.361 172.573C222.585 172.573 222.801 172.66 222.962 172.816C223.124 172.972 223.218 173.184 223.226 173.408Z" fill="#2F2E41"/>
<path d="M240.13 184.41C257.185 184.41 271.011 170.588 271.011 153.537C271.011 136.487 257.185 122.665 240.13 122.665C223.074 122.665 209.248 136.487 209.248 153.537C209.248 170.588 223.074 184.41 240.13 184.41Z" fill="#A83AE8"/>
<path d="M238.55 166.71L238.518 165.556C240.664 165.497 242.557 165.362 243.98 164.323C244.383 164.012 244.714 163.618 244.951 163.167C245.188 162.716 245.326 162.22 245.354 161.711C245.379 161.401 245.332 161.088 245.216 160.799C245.101 160.509 244.92 160.25 244.688 160.042C243.744 159.244 242.225 159.502 241.118 160.01L240.163 160.448L241.994 147.07L243.137 147.227L241.58 158.606C243.084 158.164 244.479 158.354 245.433 159.161C245.8 159.48 246.088 159.881 246.274 160.33C246.46 160.78 246.54 161.266 246.507 161.752C246.473 162.435 246.29 163.103 245.971 163.708C245.652 164.313 245.205 164.841 244.66 165.255C242.833 166.59 240.458 166.657 238.55 166.71Z" fill="#2F2E41"/>
<path d="M255.007 148.208H248.792V149.362H255.007V148.208Z" fill="#2F2E41"/>
<path d="M235.388 148.208H229.173V149.362H235.388V148.208Z" fill="#2F2E41"/>
<path d="M223.023 200.312C225.338 198.844 227.84 197.693 230.461 196.892C230.211 196.003 230.215 195.061 230.473 194.175C230.821 193.054 231.522 192.077 232.471 191.387C233.421 190.698 234.568 190.334 235.741 190.35H243.265C244.441 190.335 245.589 190.7 246.541 191.39C247.492 192.08 248.195 193.059 248.545 194.18C248.803 195.065 248.807 196.005 248.556 196.892C251.178 197.695 253.679 198.845 255.994 200.312H223.023Z" fill="#2F2E41"/>
<path d="M275.503 142.08C274.94 141.399 274.248 140.836 273.466 140.424C272.78 140.066 272.018 139.878 271.245 139.876C270.182 139.889 269.15 140.236 268.296 140.868C265.947 142.53 264.32 146.112 264.32 150.259C264.32 155.463 266.882 159.777 270.212 160.527C270.551 160.603 270.897 160.642 271.245 160.643C275.059 160.643 278.169 155.988 278.169 150.259C278.169 146.937 277.124 143.978 275.503 142.08Z" fill="#3F3D56"/>
<path d="M212.078 140.62H212.072C211.301 140.142 210.412 139.884 209.504 139.876C208.731 139.878 207.969 140.066 207.283 140.424C206.501 140.836 205.809 141.399 205.246 142.08L205.24 142.086C203.625 143.983 202.58 146.943 202.58 150.259C202.58 154.736 204.473 158.555 207.127 160.014C207.854 160.421 208.671 160.637 209.504 160.643C209.689 160.643 209.874 160.631 210.058 160.608H210.064C213.618 160.181 216.429 155.705 216.429 150.259C216.429 145.898 214.623 142.155 212.078 140.62Z" fill="#3F3D56"/>
<path d="M207.56 159.021C207.697 159.021 207.832 158.988 207.955 158.926C208.077 158.863 208.182 158.772 208.263 158.66C208.343 158.549 208.395 158.42 208.416 158.284C208.436 158.148 208.424 158.009 208.38 157.879C206.726 152.961 206.228 147.729 206.926 142.587C207.623 137.446 209.498 132.535 212.402 128.236C215.307 123.936 219.165 120.364 223.675 117.798C228.186 115.231 233.227 113.738 238.408 113.436C243.589 113.134 248.77 114.03 253.548 116.055C258.327 118.08 262.574 121.179 265.959 125.112C269.344 129.044 271.777 133.704 273.068 138.73C274.359 143.755 274.474 149.01 273.403 154.087C273.355 154.311 273.399 154.545 273.524 154.738C273.65 154.93 273.846 155.064 274.071 155.112C274.296 155.159 274.53 155.115 274.722 154.99C274.914 154.865 275.049 154.668 275.096 154.444C276.223 149.106 276.103 143.581 274.746 138.297C273.39 133.013 270.832 128.114 267.273 123.979C263.714 119.844 259.249 116.585 254.225 114.456C249.201 112.327 243.754 111.385 238.306 111.703C232.859 112.02 227.558 113.59 222.816 116.289C218.074 118.988 214.018 122.744 210.965 127.264C207.911 131.785 205.941 136.949 205.208 142.355C204.475 147.76 204.999 153.262 206.74 158.432C206.797 158.604 206.908 158.753 207.055 158.859C207.202 158.964 207.379 159.021 207.56 159.021Z" fill="#3F3D56"/>
<path d="M255.643 133.535C256.866 135.204 256.263 137.452 254.975 138.891C253.298 140.763 250.625 140.881 248.303 140.534C245.698 140.144 242.935 138.924 240.298 139.746C238.051 140.447 236.447 142.485 234.112 142.997C232.041 143.451 229.565 142.85 228.839 140.643C228.49 139.583 230.161 139.128 230.508 140.183C230.978 141.611 233.006 141.582 234.167 141.187C236.029 140.553 237.464 139.012 239.294 138.275C241.452 137.407 243.793 137.799 245.989 138.294C248.06 138.76 250.443 139.451 252.505 138.58C254.032 137.936 255.246 135.906 254.148 134.408C253.489 133.509 254.991 132.645 255.643 133.535Z" fill="#2F2E41"/>
<path d="M376.141 239.625H266.333C265.726 239.625 265.125 239.505 264.564 239.273C264.003 239.041 263.493 238.7 263.063 238.271C262.634 237.842 262.293 237.332 262.061 236.771C261.829 236.21 261.709 235.609 261.709 235.002C261.709 234.395 261.829 233.794 262.061 233.233C262.293 232.672 262.634 232.162 263.063 231.733C263.493 231.304 264.003 230.963 264.564 230.731C265.125 230.499 265.726 230.379 266.333 230.379H376.141C377.367 230.38 378.541 230.868 379.408 231.735C380.274 232.602 380.76 233.777 380.76 235.002C380.76 236.227 380.274 237.402 379.408 238.269C378.541 239.136 377.367 239.623 376.141 239.625Z" fill="#C672F7"/>
<path d="M395.216 255.227H266.334C265.726 255.228 265.124 255.109 264.562 254.877C264.001 254.645 263.49 254.304 263.06 253.875C262.63 253.446 262.289 252.936 262.057 252.374C261.824 251.813 261.704 251.212 261.704 250.604C261.704 249.997 261.824 249.395 262.057 248.834C262.289 248.273 262.63 247.763 263.06 247.334C263.49 246.904 264.001 246.564 264.562 246.332C265.124 246.1 265.726 245.981 266.334 245.981H395.216C395.824 245.981 396.426 246.1 396.988 246.332C397.549 246.564 398.06 246.904 398.49 247.334C398.92 247.763 399.261 248.273 399.493 248.834C399.726 249.395 399.846 249.997 399.846 250.604C399.846 251.212 399.726 251.813 399.493 252.374C399.261 252.936 398.92 253.446 398.49 253.875C398.06 254.304 397.549 254.645 396.988 254.877C396.426 255.109 395.824 255.228 395.216 255.227Z" fill="#C672F7"/>
<path d="M376.141 295.702H266.333C265.107 295.702 263.931 295.215 263.063 294.348C262.196 293.481 261.709 292.305 261.709 291.079C261.709 289.853 262.196 288.677 263.063 287.81C263.931 286.943 265.107 286.456 266.333 286.456H376.141C377.367 286.456 378.544 286.943 379.411 287.81C380.278 288.677 380.765 289.853 380.765 291.079C380.765 292.305 380.278 293.481 379.411 294.348C378.544 295.215 377.367 295.702 376.141 295.702Z" fill="#C672F7"/>
<path d="M395.216 311.304H266.333C265.107 311.304 263.931 310.817 263.063 309.95C262.196 309.083 261.709 307.907 261.709 306.681C261.709 305.455 262.196 304.279 263.063 303.412C263.931 302.545 265.107 302.058 266.333 302.058H395.216C396.443 302.058 397.619 302.545 398.486 303.412C399.353 304.279 399.841 305.455 399.841 306.681C399.841 307.907 399.353 309.083 398.486 309.95C397.619 310.817 396.443 311.304 395.216 311.304Z" fill="#C672F7"/>
<path d="M222.874 262.242C233.709 262.242 242.492 253.461 242.492 242.629C242.492 231.798 233.709 223.017 222.874 223.017C212.038 223.017 203.255 231.798 203.255 242.629C203.255 253.461 212.038 262.242 222.874 262.242Z" fill="#C672F7"/>
<path d="M222.874 318.773C233.709 318.773 242.492 309.992 242.492 299.16C242.492 288.329 233.709 279.548 222.874 279.548C212.038 279.548 203.255 288.329 203.255 299.16C203.255 309.992 212.038 318.773 222.874 318.773Z" fill="#C672F7"/>
<path d="M376.141 352.233H266.333C265.107 352.233 263.931 351.746 263.063 350.879C262.196 350.012 261.709 348.836 261.709 347.61C261.709 346.384 262.196 345.208 263.063 344.341C263.931 343.474 265.107 342.987 266.333 342.987H376.141C377.367 342.987 378.544 343.474 379.411 344.341C380.278 345.208 380.765 346.384 380.765 347.61C380.765 348.836 380.278 350.012 379.411 350.879C378.544 351.746 377.367 352.233 376.141 352.233Z" fill="#C672F7"/>
<path d="M395.216 367.835H266.333C265.107 367.835 263.931 367.348 263.063 366.481C262.196 365.614 261.709 364.438 261.709 363.212C261.709 361.986 262.196 360.81 263.063 359.943C263.931 359.076 265.107 358.589 266.333 358.589H395.216C396.443 358.589 397.619 359.076 398.486 359.943C399.353 360.81 399.841 361.986 399.841 363.212C399.841 364.438 399.353 365.614 398.486 366.481C397.619 367.348 396.443 367.835 395.216 367.835Z" fill="#C672F7"/>
<path d="M222.874 375.304C233.709 375.304 242.492 366.523 242.492 355.691C242.492 344.859 233.709 336.078 222.874 336.078C212.038 336.078 203.255 344.859 203.255 355.691C203.255 366.523 212.038 375.304 222.874 375.304Z" fill="#C672F7"/>
</g>
<defs>
<clipPath id="clip0">
<rect width="435" height="406" fill="white"/>
</clipPath>
</defs>
</svg>
